<svg width="195" height="35" xmlns="http://www.w3.org/2000/svg" xml:space="preserve" version="1.1">
 <title>Exictos_logo_web</title>

 <g>
  <title>Layer 1</title>
  <g stroke="null" id="svg_1">
   <g stroke="null" id="svg_2">
    <path stroke="null" id="svg_3" fill="#ffff" d="m158.11826,16.05265l2.469,0c1.61762,0 2.72442,1.02166 2.72442,2.55414c0,1.53248 -1.19193,2.63928 -2.72442,2.63928l-1.10679,0l0,3.40552l-1.36221,0l0,-8.59894zm2.38386,4.08662c0.93652,0 1.53248,-0.59597 1.53248,-1.44735c0,-0.85138 -0.59597,-1.36221 -1.53248,-1.36221l-1.02166,0l0,2.80955l1.02166,0z" class="st0"/>
    <path stroke="null" id="svg_4" fill="#ffff" d="m166.03609,22.35287c0.25541,0.59597 0.76624,1.19193 1.70276,1.19193c0.76624,0 1.27707,-0.42569 1.27707,-1.19193c0,-1.7879 -3.91635,-1.44735 -3.91635,-4.17176c0,-1.36221 1.02166,-2.29873 2.55414,-2.29873c1.61762,0 2.29873,1.19193 2.55414,1.7879l-1.10679,0.51083c-0.17028,-0.42569 -0.59597,-1.02166 -1.44735,-1.02166c-0.76624,0 -1.19193,0.42569 -1.19193,1.02166c0,1.70276 3.91635,1.36221 3.91635,4.08662c0,1.44735 -1.02166,2.55414 -2.72442,2.55414c-1.7879,0 -2.55414,-1.19193 -2.80955,-1.95817l1.19193,-0.51083z" class="st0"/>
    <path stroke="null" id="svg_5" fill="#ffff" d="m174.1242,17.32972l-2.12845,0l0,-1.19193l5.70425,0l0,1.19193l-2.12845,0l0,7.40701l-1.44735,0l0,-7.40701z" class="st0"/>
   </g>
   <path stroke="null" id="svg_6" clip-rule="evenodd" fill-rule="evenodd" fill="#ffff" d="m77.91825,11.54034c0,-0.76624 -0.42569,-1.27707 -1.27707,-1.27707l-5.44883,0c-2.97983,0 -4.2569,1.27707 -4.2569,4.2569l0,5.87452c0,1.19193 -0.51083,1.70276 -1.70276,1.70276l-7.15159,0c-0.76624,0 -1.27707,0.51083 -1.27707,1.27707c0,0.76624 0.51083,1.27707 1.27707,1.27707l7.15159,0c2.89469,0 4.2569,-1.27707 4.2569,-4.17176l0,-5.87452c0,-1.27707 0.42569,-1.70276 1.70276,-1.70276l5.44883,0c0.85138,-0.08514 1.27707,-0.59597 1.27707,-1.36221" class="st1"/>
   <path stroke="null" id="svg_7" clip-rule="evenodd" fill-rule="evenodd" fill="#ffff" d="m34.07218,10.26327l-12.60042,0c-2.55414,0 -4.17176,1.70276 -4.17176,4.2569l0,5.87452c0,2.55414 1.70276,4.17176 4.17176,4.17176l10.13142,0c0.85138,0 1.70276,-0.85138 1.70276,-1.70276l0,-2.97983c0,-0.76624 -0.51083,-1.27707 -1.27707,-1.27707c-0.76624,0 -1.27707,0.51083 -1.27707,1.27707l0,2.12845l-9.28004,0c-0.85138,0 -1.70276,-0.85138 -1.70276,-1.70276l0,-5.87452c0,-0.85138 0.85138,-1.70276 1.70276,-1.70276l12.60042,0c0.85138,0 1.70276,0.85138 1.70276,1.70276l0,8.85435c0,0.6811 0.51083,1.27707 1.27707,1.27707c0.6811,0 1.27707,-0.42569 1.27707,-1.27707l0,-8.76921c0,-2.55414 -1.70276,-4.2569 -4.2569,-4.2569" class="st1"/>
   <path stroke="null" id="svg_8" clip-rule="evenodd" fill-rule="evenodd" fill="#ffff" d="m80.4724,20.39469c0,2.97983 1.27707,4.17176 4.17176,4.17176l15.58025,0c0.76624,0 1.27707,-0.51083 1.27707,-1.27707c0,-0.76624 -0.51083,-1.27707 -1.27707,-1.27707l-15.58025,0c-1.27707,0 -1.70276,-0.42569 -1.70276,-1.70276l0,-5.87452c0,-1.27707 0.42569,-1.70276 1.70276,-1.70276l12.60042,0c1.19193,0 1.70276,0.42569 1.70276,1.70276c0,1.27707 -0.42569,1.70276 -1.70276,1.70276l-10.47197,0c-0.85138,0 -1.27707,0.42569 -1.27707,1.27707c0,0.85138 0.42569,1.27707 1.27707,1.27707l10.55711,0c2.97983,0 4.17176,-1.27707 4.17176,-4.2569c0,-2.97983 -1.27707,-4.2569 -4.17176,-4.2569l-12.68556,0c-3.06497,0 -4.17176,1.27707 -4.17176,4.2569l0,5.95966z" class="st1"/>
   <path stroke="null" id="svg_9" clip-rule="evenodd" fill-rule="evenodd" fill="#ffff" d="m104.05562,20.39469c0,2.97983 1.27707,4.17176 4.2569,4.17176l14.13291,0c0.76624,0 1.27707,-0.51083 1.27707,-1.27707c0,-0.76624 -0.42569,-1.27707 -1.27707,-1.27707l-14.21805,0c-1.27707,0 -1.70276,-0.42569 -1.70276,-1.70276l0,-5.87452c0,-1.19193 0.42569,-1.70276 1.70276,-1.70276l14.13291,0c0.76624,0 1.27707,-0.51083 1.27707,-1.27707c0,-0.76624 -0.51083,-1.27707 -1.27707,-1.27707l-14.13291,0c-2.97983,0 -4.2569,1.27707 -4.2569,4.2569l0,5.95966l0.08514,0z" class="st1"/>
   <path stroke="null" id="svg_10" clip-rule="evenodd" fill-rule="evenodd" fill="#ffff" d="m126.44692,20.39469c0,2.97983 1.27707,4.2569 4.17176,4.2569l12.60042,0c2.97983,0 4.2569,-1.27707 4.2569,-4.2569l0,-5.87452c0,-2.97983 -1.27707,-4.17176 -4.2569,-4.17176l-12.51529,0c-2.97983,0 -4.17176,1.27707 -4.17176,4.17176l0,5.87452l-0.08514,0zm4.2569,1.70276c-1.27707,0 -1.70276,-0.51083 -1.70276,-1.70276l0,-5.87452c0,-1.19193 0.42569,-1.61762 1.70276,-1.70276l12.60042,0c1.27707,0 1.70276,0.42569 1.70276,1.70276l0,5.87452c0,1.19193 -0.42569,1.70276 -1.70276,1.70276l-12.60042,0z" class="st1"/>
   <path stroke="null" id="svg_11" clip-rule="evenodd" fill-rule="evenodd" fill="#ffff" d="m61.91231,11.54034c0,-0.76624 -0.42569,-1.27707 -1.27707,-1.27707l-5.44883,0c-2.97983,0 -4.2569,1.27707 -4.2569,4.2569l0,5.87452c0,1.19193 -0.51083,1.70276 -1.70276,1.70276l-7.15159,0c-0.76624,0 -1.19193,0.51083 -1.19193,1.27707c0,0.76624 0.42569,1.27707 1.19193,1.27707l7.15159,0c2.89469,0 4.2569,-1.27707 4.2569,-4.17176l0,-5.87452c0,-1.27707 0.42569,-1.70276 1.70276,-1.70276l5.44883,0c0.85138,-0.08514 1.27707,-0.59597 1.27707,-1.36221" class="st1"/>
  </g>
 </g>
</svg>