<?xml version="1.0" encoding="utf-8"?>
<!-- Generator: Adobe Illustrator 22.1.0, SVG Export Plug-In . SVG Version: 6.00 Build 0)  -->
<svg version="1.1" id="Layer_1" xmlns="http://www.w3.org/2000/svg" xmlns:xlink="http://www.w3.org/1999/xlink" x="0px" y="0px"
	 viewBox="0 0 195 35" style="enable-background:new 0 0 195 35;" xml:space="preserve">
<style type="text/css">
	.st0{fill:#12A2DC;}
	.st1{fill-rule:evenodd;clip-rule:evenodd;}
</style>
<title>Exictos_logo_web</title>
<g>
	<g>
		<path class="st0" d="M167.2,15.7h2.9c1.9,0,3.2,1.2,3.2,3c0,1.8-1.4,3.1-3.2,3.1h-1.3v4h-1.6V15.7z M170,20.5
			c1.1,0,1.8-0.7,1.8-1.7c0-1-0.7-1.6-1.8-1.6h-1.2v3.3H170z"/>
		<path class="st0" d="M176.5,23.1c0.3,0.7,0.9,1.4,2,1.4c0.9,0,1.5-0.5,1.5-1.4c0-2.1-4.6-1.7-4.6-4.9c0-1.6,1.2-2.7,3-2.7
			c1.9,0,2.7,1.4,3,2.1l-1.3,0.6c-0.2-0.5-0.7-1.2-1.7-1.2c-0.9,0-1.4,0.5-1.4,1.2c0,2,4.6,1.6,4.6,4.8c0,1.7-1.2,3-3.2,3
			c-2.1,0-3-1.4-3.3-2.3L176.5,23.1z"/>
		<path class="st0" d="M186,17.2h-2.5v-1.4h6.7v1.4h-2.5v8.7H186V17.2z"/>
	</g>
	<path class="st1" d="M73,10.4c0-0.9-0.5-1.5-1.5-1.5h-6.4c-3.5,0-5,1.5-5,5v6.9c0,1.4-0.6,2-2,2h-8.4c-0.9,0-1.5,0.6-1.5,1.5
		c0,0.9,0.6,1.5,1.5,1.5h8.4c3.4,0,5-1.5,5-4.9v-6.9c0-1.5,0.5-2,2-2h6.4C72.5,11.9,73,11.3,73,10.4"/>
	<path class="st1" d="M21.5,8.9l-14.8,0c-3,0-4.9,2-4.9,5v6.9c0,3,2,4.9,4.9,4.9h11.9c1,0,2-1,2-2l0-3.5c0-0.9-0.6-1.5-1.5-1.5
		c-0.9,0-1.5,0.6-1.5,1.5v2.5H6.7c-1,0-2-1-2-2v-6.9c0-1,1-2,2-2l14.8,0c1,0,2,1,2,2v10.4c0,0.8,0.6,1.5,1.5,1.5
		c0.8,0,1.5-0.5,1.5-1.5V13.9C26.5,10.9,24.5,8.9,21.5,8.9"/>
	<path class="st1" d="M76,20.8c0,3.5,1.5,4.9,4.9,4.9h18.3c0.9,0,1.5-0.6,1.5-1.5c0-0.9-0.6-1.5-1.5-1.5H80.9c-1.5,0-2-0.5-2-2v-6.9
		c0-1.5,0.5-2,2-2h14.8c1.4,0,2,0.5,2,2c0,1.5-0.5,2-2,2H83.4c-1,0-1.5,0.5-1.5,1.5c0,1,0.5,1.5,1.5,1.5h12.4c3.5,0,4.9-1.5,4.9-5
		c0-3.5-1.5-5-4.9-5H80.9c-3.6,0-4.9,1.5-4.9,5V20.8z"/>
	<path class="st1" d="M103.7,20.8c0,3.5,1.5,4.9,5,4.9h16.6c0.9,0,1.5-0.6,1.5-1.5c0-0.9-0.5-1.5-1.5-1.5h-16.7c-1.5,0-2-0.5-2-2
		v-6.9c0-1.4,0.5-2,2-2h16.6c0.9,0,1.5-0.6,1.5-1.5c0-0.9-0.6-1.5-1.5-1.5h-16.6c-3.5,0-5,1.5-5,5V20.8z"/>
	<path class="st1" d="M130,20.8c0,3.5,1.5,5,4.9,5h14.8c3.5,0,5-1.5,5-5v-6.9c0-3.5-1.5-4.9-5-4.9H135c-3.5,0-4.9,1.5-4.9,4.9V20.8z
		 M135,22.8c-1.5,0-2-0.6-2-2v-6.9c0-1.4,0.5-1.9,2-2h14.8c1.5,0,2,0.5,2,2v6.9c0,1.4-0.5,2-2,2L135,22.8z"/>
	<path class="st1" d="M54.2,10.4c0-0.9-0.5-1.5-1.5-1.5h-6.4c-3.5,0-5,1.5-5,5v6.9c0,1.4-0.6,2-2,2h-8.4c-0.9,0-1.4,0.6-1.4,1.5
		c0,0.9,0.5,1.5,1.4,1.5h8.4c3.4,0,5-1.5,5-4.9v-6.9c0-1.5,0.5-2,2-2h6.4C53.7,11.9,54.2,11.3,54.2,10.4"/>
</g>
</svg>
