<?xml version="1.0" encoding="utf-8"?>
<!-- Generator: Adobe Illustrator 22.1.0, SVG Export Plug-In . SVG Version: 6.00 Build 0)  -->
<svg version="1.1" id="Layer_1" xmlns="http://www.w3.org/2000/svg" xmlns:xlink="http://www.w3.org/1999/xlink" x="0px" y="0px"
	 viewBox="0 0 28 30" style="enable-background:new 0 0 20 35;" xml:space="preserve">
<style type="text/css">
	.st0{fill:#12A2DC;}
	.st1{fill:#fff;fill-rule:evenodd;clip-rule:evenodd;}
</style>
<title>Exictos_logo_web</title>
<g>

	<path class="st1" d="M21.5,8.9l-14.8,0c-3,0-4.9,2-4.9,5v6.9c0,3,2,4.9,4.9,4.9h11.9c1,0,2-1,2-2l0-3.5c0-0.9-0.6-1.5-1.5-1.5
		c-0.9,0-1.5,0.6-1.5,1.5v2.5H6.7c-1,0-2-1-2-2v-6.9c0-1,1-2,2-2l14.8,0c1,0,2,1,2,2v10.4c0,0.8,0.6,1.5,1.5,1.5
		c0.8,0,1.5-0.5,1.5-1.5V13.9C26.5,10.9,24.5,8.9,21.5,8.9"/>
</g>
</svg>
